Poster: 
http://imgr.us/images/ktqtftw4zvsb5i5b0vb0.jpg

Info:

IMDB: www.imdb.com/title/tt1821427/

Plot:
Justice needs to be served at Britain's most notorious young offenders institute.

Info:
Format : Matroska
Format version : Version 2
File size : 1.20 GiB
Duration : 1h 37mn
Overall bit rate : 1 760 Kbps
Encoded date : UTC 2012-11-21 20:41:22
Writing application : mkvmerge v5.6.0 ('Kenya Kane') built on May 27 2012 16:44:04
Writing library : libebml v1.2.3 + libmatroska v1.3.0

Video
ID : 1
Format : AVC
Format/Info : Advanced Video Codec
Format profile : Baseline@L5.1
Format settings, CABAC : No
Format settings, ReFrames : 1 frame
Codec ID : V_MPEG4/ISO/AVC
Duration : 1h 37mn
Bit rate : 1 438 Kbps
Width : 720 pixels
Height : 384 pixels
Display aspect ratio : 1.85:1
Frame rate : 25.000 fps
Color space : YUV
Chroma subsampling : 4:2:0
Bit depth : 8 bits
Scan type : Progressive
Bits/(Pixel*Frame) : 0.208
Stream size : 981 MiB (80%)
Writing library : x264 core 125 r2200 999b753
Default : Yes
Forced : No

Audio
ID : 2
Format : AC-3
Format/Info : Audio Coding 3
Mode extension : CM (complete main)
Format settings, Endianness : Big
Codec ID : A_AC3
Duration : 1h 37mn
Bit rate mode : Constant
Bit rate : 320 Kbps
Channel(s) : 6 channels
Channel positions : Front: L C R, Side: L R, LFE
Sampling rate : 48.0 KHz
Bit depth : 16 bits
Compression mode : Lossy
Stream size : 223 MiB (18%)
Default : Yes
Forced : No



Screens:
 
http://imgr.us/images/4u8lr33mhe07njwkgit.jpeg